<svg width="25" height="24" viewBox="0 0 25 24" fill="none" xmlns="http://www.w3.org/2000/svg">
<path d="M4.13591 5.63744C4.96084 12.9021 11.1701 19.0894 18.4588 19.9082C19.4057 20.0145 20.2291 19.3277 20.4166 18.3934L20.7964 16.5007C20.9741 15.615 20.536 14.7202 19.7276 14.3172L18.485 13.6979C17.6735 13.2935 16.689 13.5258 16.1439 14.2503C15.7888 14.7223 15.2193 15.0101 14.6742 14.7825C12.7995 13.9998 10.0648 11.2742 9.2781 9.40487C9.0491 8.86073 9.33742 8.29185 9.81025 7.93836C10.5366 7.39533 10.7694 6.40984 10.3628 5.59921L9.74256 4.36276C9.33881 3.55785 8.44694 3.12202 7.56383 3.29808L5.65194 3.67923C4.71653 3.86572 4.02829 4.68971 4.13591 5.63744Z" stroke="black" stroke-linecap="round" stroke-linejoin="round"/>
</svg>
